<svg width="1200" height="480" xmlns="http://www.w3.org/2000/svg" xmlns:svg="http://www.w3.org/2000/svg" xmlns:xlink="http://www.w3.org/1999/xlink">
 <!-- Created with SVG-edit - http://svg-edit.googlecode.com/ -->
 <g>
  <title>Layer 1</title>
  <rect ry="5" rx="5" id="svg_1" height="33" width="70" y="101.013289" x="101.715394" stroke-width="2" stroke="#000000" fill="#aaffff"/>
  <text xml:space="preserve" text-anchor="middle" font-family="Sans-serif" font-size="24" id="svg_3" y="124.788483" x="135.165007" stroke-linecap="null" stroke-linejoin="null" stroke-dasharray="null" stroke-width="0" stroke="#000000" fill="#000000">npm</text>
  <rect stroke="#000000" ry="5" rx="5" id="svg_4" height="42.04651" width="132.193795" y="189.866003" x="53.785161" stroke-linecap="null" stroke-linejoin="null" stroke-dasharray="null" stroke-width="2" fill="#aaffff"/>
  <text stroke="#000000" transform="matrix(0.700759512363959,0,0,0.624963583827018,8.20885258551225,68.99496051520029) " xml:space="preserve" text-anchor="middle" font-family="Sans-serif" font-size="24" id="svg_5" y="220.803846" x="163.873587" stroke-linecap="null" stroke-linejoin="null" stroke-dasharray="null" stroke-width="0" fill="#000000">npm download</text>
  <text stroke="#000000" transform="matrix(0.7940738070244572,0,0,0.6685153374395439,8.83733094643324,82.31911435265592) " xml:space="preserve" text-anchor="middle" font-family="Sans-serif" font-size="24" id="svg_6" y="213.142751" x="135.102565" stroke-linecap="null" stroke-linejoin="null" stroke-dasharray="null" stroke-width="0" fill="#000000">counts</text>
  <rect stroke="#000000" ry="5" rx="5" id="svg_7" height="43.5969" width="124.39535" y="274.284607" x="58.211518" stroke-linecap="null" stroke-linejoin="null" stroke-dasharray="null" stroke-width="2" fill="#aaffaa"/>
  <text stroke="#000000" transform="matrix(0.7472711311254786,0,0,0.7273736758199407,5.275697840024801,79.31482236656166) " xml:space="preserve" text-anchor="middle" font-family="Sans-serif" font-size="24" id="svg_8" y="290.492" x="150.875897" stroke-linecap="null" stroke-linejoin="null" stroke-dasharray="null" stroke-width="0" fill="#000000">manual test</text>
  <text stroke="#000000" transform="matrix(0.8754686664971345,0,0,0.6684256155923549,6.14520445316295,104.62668718033053) " xml:space="preserve" text-anchor="middle" font-family="Sans-serif" font-size="24" id="svg_9" y="309.908048" x="128.489407" stroke-linecap="null" stroke-linejoin="null" stroke-dasharray="null" stroke-width="0" fill="#000000">results</text>
  <rect stroke="#000000" ry="20" rx="20" id="svg_10" height="294" width="159.000006" y="76.238095" x="238.986712" stroke-linecap="null" stroke-linejoin="null" stroke-dasharray="null" stroke-width="2" fill="#ffd4aa"/>
  <text stroke="#000000" transform="matrix(0.6071380238947293,0,0,0.6320586383816824,67.97241583900453,43.034659690744235) " xml:space="preserve" text-anchor="middle" font-family="Sans-serif" font-size="24" id="svg_12" y="192.717029" x="411.242899" stroke-linecap="null" stroke-linejoin="null" stroke-dasharray="null" stroke-width="0" fill="#000000">get module metadata</text>
  <text stroke="#000000" transform="matrix(0.8605284690856934,0,0,0.6787506937980652,20.31272093206644,44.49804842937738) " xml:space="preserve" text-anchor="middle" font-family="Sans-serif" font-size="24" id="svg_13" y="227.649059" x="325.002601" stroke-linecap="null" stroke-linejoin="null" stroke-dasharray="null" stroke-width="0" fill="#000000">npm install</text>
  <text stroke="#000000" transform="matrix(0.7281398327939533,0,0,0.669832919958466,113.64389889700581,61.772729306764) " xml:space="preserve" text-anchor="middle" font-family="Sans-serif" font-size="24" id="svg_14" y="253.557414" x="279.67862" stroke-linecap="null" stroke-linejoin="null" stroke-dasharray="null" stroke-width="0" fill="#000000">browserify bundle</text>
  <a xlink:href="https://github.com/browserify-search/core-deps">
    <text stroke="#000000" transform="matrix(0.7723095417022705,0,0,0.7144450545310974,37.864211682230234,54.402678907848895) " xml:space="preserve" text-anchor="middle" font-family="Sans-serif" font-size="24" id="svg_15" y="294.829808" x="327.325906" stroke-linecap="null" stroke-linejoin="null" stroke-dasharray="null" stroke-width="0" fill="#000000">core deps</text>
  </a>
  <text stroke="#000000" transform="matrix(0.5163298357613221,0,0,0.6320585957974388,99.80288696979943,143.5132215237212) " xml:space="preserve" text-anchor="middle" font-family="Sans-serif" font-size="24" id="svg_16" y="243.815995" x="423.53428" stroke-linecap="null" stroke-linejoin="null" stroke-dasharray="null" stroke-width="0" fill="#000000">calculate browserifiability</text>
  <text stroke="#000000" transform="matrix(0.6202129628911202,0,0,0.7330167948077744,61.185462568815424,61.78510019986969) " xml:space="preserve" text-anchor="middle" font-family="Sans-serif" font-size="24" id="svg_17" y="364.269247" x="413.609634" stroke-linecap="null" stroke-linejoin="null" stroke-dasharray="null" stroke-width="0" fill="#000000">get download counts</text>
  <path stroke="#000000" transform="rotate(34.9871940612793 205.02735900878906,125.77296447753906) " id="svg_18" d="m211.585175,109.806015l0.361877,4.20446l-4.253281,0.732353c-10.760406,1.853691 -21.31459,9.713348 -27.191071,20.252441c-1.054123,1.891907 -1.759567,3.712143 -1.567261,4.050598c0.439056,0.770126 11.160538,6.901596 12.067154,6.901596c0.369919,0 1.258881,-1.129532 1.974747,-2.506424c3.054565,-5.879044 10.951187,-12.010162 16.516373,-12.818665l2.255905,-0.32869l-0.387665,3.637177c-0.402969,3.774261 -0.289932,4.565308 0.652634,4.565308c0.60199,0 18.583649,-14.492905 19.097519,-15.391846c0.389862,-0.683128 -2.083328,-3.215057 -10.938736,-11.199959c-3.845993,-3.470772 -7.432724,-6.305878 -7.97084,-6.305878c-0.861053,0 -0.935226,0.50351 -0.617355,4.207527l0,0z" stroke-linecap="null" stroke-linejoin="null" stroke-dasharray="null" stroke-width="2" fill="#e5e5e5"/>
  <path stroke="#000000" transform="rotate(-39.68815231323242 212.10275268554682,294.86315917968744) " id="svg_19" d="m218.002319,308.243073l0.324783,-3.525085l-3.824081,-0.612976c-9.681061,-1.553009 -19.170532,-8.139008 -24.454834,-16.969971c-0.947922,-1.585327 -1.582291,-3.111298 -1.409775,-3.393341c0.395462,-0.645203 10.035812,-5.783264 10.851471,-5.783264c0.332321,0 1.131683,0.944275 1.775192,2.099365c2.746262,4.926056 9.852554,10.064026 14.856369,10.741364l2.028809,0.274109l-0.348938,-3.045837c-0.362366,-3.163818 -0.260406,-3.827545 0.586929,-3.827545c0.541534,0 16.710251,12.144897 17.172302,12.898926c0.35054,0.571594 -1.873428,2.693176 -9.835403,9.384644c-3.458923,2.906281 -6.684082,5.284424 -7.167969,5.284424c-0.774643,0 -0.840668,-0.423035 -0.554855,-3.524811l0,0z" stroke-linecap="null" stroke-linejoin="null" stroke-dasharray="null" stroke-width="2" fill="#e5e5e5"/>
  <path stroke="#000000" id="svg_20" d="m206.123016,230.646469c-1.342926,-0.948166 -1.166382,-1.522385 2.098694,-6.838791c1.649399,-2.684113 2.998856,-4.958557 2.998856,-5.054184c0,-0.095551 -4.553345,-0.172958 -10.119141,-0.172958l-10.119553,0l0,-5.027496l0,-5.027863l10.19989,0c7.86377,0 10.111206,-0.15126 9.815643,-0.661697c-0.210846,-0.363922 -1.649979,-2.777939 -3.196228,-5.365204c-2.917938,-4.876633 -2.915955,-6.184723 0.003967,-6.589676c1.453018,-0.202179 24.079987,15.297867 24.857574,17.028214c-7.536407,6.177002 -16.54512,12.643433 -24.844681,18.345169c-0.436707,0 -1.200104,-0.286087 -1.695023,-0.635513z" stroke-linecap="null" stroke-linejoin="null" stroke-dasharray="null" stroke-width="2" fill="#e5e5e5"/>
  <rect ry="5" rx="5" id="svg_21" height="42.635659" width="151.162791" y="126.201536" x="476.766333" stroke-linecap="null" stroke-linejoin="null" stroke-dasharray="null" stroke-width="2" stroke="#000000" fill="#aaffaa"/>
  <rect id="svg_22" height="21.705426" width="0" y="138.604637" x="486.821705" stroke-linecap="null" stroke-linejoin="null" stroke-dasharray="null" stroke-width="2" stroke="#000000" fill="#aaffaa"/>
  <text xml:space="preserve" text-anchor="middle" font-family="Sans-serif" font-size="24" id="svg_23" y="155.658901" x="550.409744" stroke-linecap="null" stroke-linejoin="null" stroke-dasharray="null" stroke-width="0" stroke="#000000" fill="#000000">modules</text>
  <rect ry="5" rx="5" id="svg_24" height="68.217054" width="154.263566" y="264.186032" x="476.766333" stroke-linecap="null" stroke-linejoin="null" stroke-dasharray="null" stroke-width="2" stroke="#000000" fill="#aaffaa"/>
  <text xml:space="preserve" text-anchor="middle" font-family="Sans-serif" font-size="24" id="svg_25" y="289.767427" x="551.184937" stroke-linecap="null" stroke-linejoin="null" stroke-dasharray="null" stroke-width="0" stroke="#000000" fill="#000000">module</text>
  <text xml:space="preserve" text-anchor="middle" font-family="Sans-serif" font-size="24" id="svg_26" y="319.224791" x="552.735327" stroke-linecap="null" stroke-linejoin="null" stroke-dasharray="null" stroke-width="0" stroke="#000000" fill="#000000">stats</text>
  <path stroke="#000000" transform="rotate(58.734519958496094 547.4832763671874,215.79812622070312) " id="svg_28" d="m555.245117,231.659744l0.426697,-4.178757l-5.030396,-0.727051c-12.736206,-1.840668 -25.220886,-9.647888 -32.171692,-20.11792c-1.246887,-1.878632 -2.082336,-3.688263 -1.854858,-4.022018c0.519531,-0.765045 13.202698,-6.856857 14.275024,-6.856857c0.438843,0 1.489075,1.12059 2.336365,2.4897c3.612183,5.839691 12.961243,11.931061 19.544495,12.732651l2.669006,0.325027l-0.459045,-3.611237c-0.476746,-3.74913 -0.342468,-4.536591 0.771484,-4.536591c0.712585,0 21.982544,14.397827 22.590881,15.291916c0.461365,0.677841 -2.464294,3.193771 -12.938782,11.125763c-4.550354,3.445404 -8.792603,6.264755 -9.430176,6.264755c-1.018555,0 -1.10614,-0.500244 -0.729004,-4.179382l0,0z" stroke-linecap="null" stroke-linejoin="null" stroke-dasharray="null" stroke-width="2" fill="#e5e5e5"/>
  <rect ry="20" rx="20" id="svg_29" height="121.705426" width="86.821705" y="151.782932" x="701.572535" stroke-linecap="null" stroke-linejoin="null" stroke-dasharray="null" stroke-width="2" stroke="#000000" fill="#ffd4aa"/>
  <text xml:space="preserve" text-anchor="middle" font-family="Sans-serif" font-size="24" id="svg_31" y="196.744172" x="742.657806" stroke-linecap="null" stroke-linejoin="null" stroke-dasharray="null" stroke-width="0" stroke="#000000" fill="#000000">import</text>
  <text xml:space="preserve" text-anchor="middle" font-family="Sans-serif" font-size="24" id="svg_32" y="237.829443" x="746.533775" stroke-linecap="null" stroke-linejoin="null" stroke-dasharray="null" stroke-width="0" stroke="#000000" fill="#000000">ES</text>
  <path stroke="#000000" transform="rotate(13.23439884185791 434.2019348144532,145.1789855957032) " id="svg_33" d="m440.471893,130.502884l0.345276,3.866776l-4.06369,0.673279c-10.289703,1.703064 -20.376099,8.926147 -25.992645,18.613464c-1.006531,1.738113 -1.681488,3.412323 -1.498993,3.721115c0.420898,0.707397 10.667084,6.344345 11.534332,6.344345c0.353546,0 1.203094,-1.036819 1.885895,-2.303116c2.91861,-5.403397 10.472168,-11.039261 15.790405,-11.780609l2.158081,-0.301819l-0.371155,3.342239c-0.385193,3.46785 -0.277863,4.196945 0.62323,4.196945c0.575806,0 17.759552,-13.321472 18.252014,-14.148865c0.37326,-0.627823 -1.99115,-2.954666 -10.453918,-10.293533c-3.676666,-3.188278 -7.103119,-5.796997 -7.619415,-5.796997c-0.822205,0 -0.891113,0.462814 -0.589417,3.866776l0,0z" stroke-linecap="null" stroke-linejoin="null" stroke-dasharray="null" stroke-width="2" fill="#e5e5e5"/>
  <path transform="rotate(28.46315574645996 667.1527099609374,161.62817382812514) " stroke="#000000" id="svg_34" d="m674.381409,145.676056l0.394836,4.202332l-4.681091,0.731491c-11.85907,1.851944 -23.491333,9.70314 -29.96759,20.233185c-1.154846,1.889969 -1.934448,3.70932 -1.72406,4.044968c0.485168,0.768921 12.298645,6.895187 13.295532,6.895187c0.407471,0 1.38739,-1.125961 2.173462,-2.503403c3.364563,-5.873871 12.075562,-11.998611 18.202576,-12.805573l2.484436,-0.326889l-0.423828,3.631653c-0.44342,3.77124 -0.320313,4.562332 0.718262,4.562332c0.663025,0 20.473267,-14.479767 21.039429,-15.378708c0.430237,-0.68161 -2.296814,-3.211914 -12.049988,-11.189468c-4.237793,-3.465073 -8.193787,-6.300034 -8.782776,-6.300034c-0.947693,0 -1.031677,0.503098 -0.679199,4.202927l0,0z" stroke-linecap="null" stroke-linejoin="null" stroke-dasharray="null" stroke-width="2" fill="#e5e5e5"/>
  <path stroke="#000000" id="svg_35" transform="rotate(-48.092952728271484 669.8482055664062,282.3871459960937) " d="m676.118164,299.575806l0.345337,-4.528778l-4.063721,-0.788544c-10.289673,-1.994629 -20.376099,-10.454315 -25.992615,-21.80014c-1.006531,-2.035675 -1.681519,-3.996521 -1.499023,-4.358185c0.420898,-0.828491 10.667114,-7.430481 11.534363,-7.430481c0.353516,0 1.203064,1.214294 1.885864,2.697388c2.91864,6.328491 10.472168,12.92923 15.790405,13.797485l2.158081,0.353485l-0.371155,-3.914429c-0.385193,-4.061584 -0.277832,-4.915497 0.62323,-4.915497c0.575806,0 17.759583,15.602173 18.252014,16.571198c0.373291,0.735321 -1.99115,3.460541 -10.453918,12.055817c-3.676636,3.7341 -7.103149,6.789459 -7.619385,6.789459c-0.822205,0 -0.891174,-0.542053 -0.589478,-4.528778l0,0z" stroke-linecap="null" stroke-linejoin="null" stroke-dasharray="null" stroke-width="2" fill="#e5e5e5"/>
  <rect stroke="#000000" ry="5" rx="5" id="svg_36" height="80.620157" width="134.108528" y="179.689908" x="850.409744" stroke-linecap="null" stroke-linejoin="null" stroke-dasharray="null" stroke-width="2" fill="#aaffaa"/>
  <text xml:space="preserve" text-anchor="middle" font-family="Sans-serif" font-size="24" id="svg_37" y="209.147272" x="912.425247" stroke-linecap="null" stroke-linejoin="null" stroke-dasharray="null" stroke-width="0" stroke="#000000" fill="#000000">elastic</text>
  <text xml:space="preserve" text-anchor="middle" font-family="Sans-serif" font-size="24" id="svg_38" y="245.581381" x="916.301219" stroke-linecap="null" stroke-linejoin="null" stroke-dasharray="null" stroke-width="0" stroke="#000000" fill="#000000">search</text>
  <path stroke="#000000" id="svg_39" d="m813.829895,239.996704c-1.406982,-1.031097 -1.224365,-1.655426 2.195557,-7.435791c1.722412,-2.919174 3.133545,-5.391388 3.133545,-5.495697c0,-0.103546 -4.760498,-0.188065 -10.583496,-0.188065l-10.587646,0l0,-5.466797l0,-5.465988l10.670654,0c8.230225,0 10.579346,-0.165222 10.268066,-0.719513c-0.219971,-0.395935 -1.726563,-3.021194 -3.345215,-5.833771c-3.050537,-5.302307 -3.050537,-6.724579 0.00415,-7.165421c1.523193,-0.219284 25.192871,16.634048 26.006348,18.515442c-7.881592,6.716232 -17.307129,13.746902 -25.989746,19.946182c-0.456543,0 -1.257568,-0.310791 -1.772217,-0.690582z" stroke-linecap="null" stroke-linejoin="null" stroke-dasharray="null" stroke-width="2" fill="#e5e5e5"/>
  <rect stroke="#000000" id="svg_40" height="58.914727" width="111.627908" y="184.341071" x="1051.184939" stroke-linecap="null" stroke-linejoin="null" stroke-dasharray="null" stroke-width="2" fill="#ffd4aa"/>
  <text xml:space="preserve" text-anchor="middle" font-family="Sans-serif" font-size="24" id="svg_41" y="220.77518" x="1106.998893" stroke-linecap="null" stroke-linejoin="null" stroke-dasharray="null" stroke-width="0" stroke="#000000" fill="#000000">www</text>
  <path id="svg_42" stroke="#000000" d="m1013.442078,233.114929c-1.407043,-1.031097 -1.224426,-1.655426 2.195496,-7.435791c1.722473,-2.919174 3.133606,-5.391388 3.133606,-5.495697c0,-0.103546 -4.760498,-0.188065 -10.583496,-0.188065l-10.587708,0l0,-5.466797l0,-5.465988l10.670654,0c8.230286,0 10.579346,-0.165222 10.268066,-0.719513c-0.21991,-0.395935 -1.726563,-3.021194 -3.345215,-5.833771c-3.050537,-5.302307 -3.050537,-6.724579 0.004211,-7.165421c1.523193,-0.219284 25.19281,16.634048 26.006287,18.515442c-7.881592,6.716232 -17.307129,13.746902 -25.989746,19.946182c-0.456543,0 -1.257568,-0.310791 -1.772156,-0.690582z" stroke-linecap="null" stroke-linejoin="null" stroke-dasharray="null" stroke-width="2" fill="#e5e5e5"/>
  <a xlink:href="https://github.com/browserify-search/process-module" id="svg_43">
   <text font-weight="bold" stroke="#000000" transform="matrix(0.7929261799350115,0,0,0.8291762874440602,105.39965230992235,31.739543403059816) " xml:space="preserve" text-anchor="middle" font-family="Sans-serif" font-size="24" id="svg_11" y="101.257066" x="267.473905" stroke-linecap="null" stroke-linejoin="null" stroke-dasharray="null" stroke-width="0" fill="#000000">process module</text>
  </a>
 </g>
</svg>